<svg width="1176" height="113" viewBox="0 0 1176 113" fill="none" xmlns="http://www.w3.org/2000/svg">
<g clip-path="url(#clip0_490_3623)">
<path d="M296.712 100.82C283.332 100.82 269.965 100.782 256.585 100.869C254.438 100.882 253.677 100.359 253.752 98.1212C253.914 92.9609 253.802 87.7881 253.802 82.6153C253.802 79.8051 253.889 79.7056 256.722 79.7056C280.723 79.7056 304.737 79.7305 328.738 79.6559C330.535 79.6559 332.507 79.258 334.067 78.4248C336.264 77.2684 336.938 74.7691 336.289 72.4438C335.64 70.1061 333.556 68.328 331.172 68.129C330.311 68.0544 329.437 68.0793 328.576 68.0793C311.439 68.0793 294.303 68.0917 277.166 68.0793C264.635 68.0668 255.112 61.5263 250.657 49.9621C245.552 36.7193 253.54 19.9824 267.219 15.7297C270.477 14.7225 274.009 14.1132 277.416 14.1008C303.302 13.964 329.187 14.0511 355.073 13.9889C357.082 13.9889 357.894 14.4365 357.844 16.6002C357.706 22.0589 357.719 27.5177 357.844 32.964C357.881 34.9038 357.245 35.3639 355.36 35.3639C330.922 35.3017 306.484 35.3391 282.046 35.3017C279.45 35.3017 277.379 36.0478 276.043 38.3607C274.071 41.7926 276.155 46.1696 280.099 46.7664C281.31 46.9529 282.546 46.9405 283.781 46.9405C300.631 46.9405 317.48 46.9405 334.317 46.9529C345.737 46.9529 354.424 51.8024 359.753 61.8496C367.953 77.3057 358.593 96.5918 341.331 100.111C339.16 100.558 336.901 100.795 334.679 100.807C322.023 100.869 309.367 100.844 296.724 100.844L296.712 100.82Z" fill="white"/>
<path d="M180.176 100.807C174.323 100.807 168.457 100.869 162.603 100.807C143.32 100.558 126.807 88.559 121.141 70.2926C114.127 47.6866 126.433 23.9241 148.824 16.5131C152.743 15.2199 156.986 14.2998 161.105 14.2252C174.335 13.964 187.59 13.678 200.795 14.3246C218.842 15.2075 233.969 27.3561 239.524 44.3293C246.188 64.7095 236.191 87.4772 216.608 96.5918C210.692 99.3398 204.502 100.782 197.974 100.82C192.046 100.844 186.117 100.82 180.189 100.82L180.176 100.807ZM180.314 77.7534C180.314 77.7534 180.314 77.7658 180.314 77.7783C184.794 77.7783 189.287 77.8777 193.768 77.741C196.127 77.6663 198.536 77.4176 200.807 76.8208C210.73 74.1847 217.183 63.4288 214.936 53.5184C212.689 43.6205 204.627 37.2042 194.13 37.1296C184.944 37.055 175.758 37.1172 166.572 37.1296C165.848 37.1296 165.124 37.1669 164.4 37.2291C153.018 38.2985 145.179 47.0027 145.354 57.771C145.541 69.3974 154.777 77.7658 165.561 77.7783C170.478 77.7783 175.396 77.7783 180.314 77.7783V77.7534Z" fill="white"/>
<path d="M420.474 13.9889C436.961 13.9889 453.449 13.9889 469.924 13.9889C472.807 13.9889 472.882 14.0635 472.882 16.8488C472.882 22.5936 472.882 28.3384 472.882 34.0832C472.882 37.0923 472.882 37.0923 469.924 37.0923C458.716 37.0923 447.508 37.0923 436.3 37.0923C433.454 37.0923 433.404 37.1421 433.404 39.9896C433.404 59.3005 433.404 78.6238 433.404 97.9347C433.404 100.795 433.404 100.807 430.583 100.807C423.719 100.807 416.842 100.732 409.977 100.857C407.905 100.894 407.281 100.322 407.281 98.2207C407.356 78.9098 407.331 59.5865 407.331 40.2756C407.331 38.1534 406.27 37.0923 404.148 37.0923C392.941 37.0923 381.733 37.055 370.525 37.1296C368.627 37.1421 368.016 36.5949 368.053 34.6925C368.166 28.5871 368.153 22.4817 368.053 16.3888C368.028 14.4738 368.715 13.9516 370.575 13.964C387.199 14.0262 403.836 14.0013 420.461 14.0013L420.474 13.9889Z" fill="white"/>
<path d="M474.566 112.645C475.415 109.673 476.139 107.012 476.938 104.351C480.944 91.0459 490.18 60.4445 494.199 47.1395C497.918 34.8665 505.095 13.9392 508.901 1.70354C509.126 0.994766 510.249 0.087042 510.961 0.087042C518.474 -0.0248691 525.988 0.0248691 533.502 0C534.999 0 535.211 0.696336 534.837 1.91492C533.514 6.30433 528.746 19.3606 527.423 23.75C524.091 34.7919 520.746 45.8214 517.401 56.8633C514.081 67.8306 505.569 96.1192 502.262 107.087C502.224 107.223 502.149 107.348 502.099 107.484C500.901 111.024 498.384 112.794 494.548 112.794C488.77 112.794 482.991 112.794 477.2 112.794C476.438 112.794 475.677 112.719 474.554 112.657L474.566 112.645Z" fill="white"/>
<path d="M873.186 93.6448C873.248 92.6127 873.373 91.5931 873.373 90.561C873.373 66.6617 873.373 42.7501 873.373 18.8508C873.373 16.5546 874.525 15.4064 876.83 15.4064C883.483 15.4064 890.135 15.4686 896.775 15.3691C898.797 15.3443 899.571 15.9038 899.571 18.0301C899.508 45.3116 899.521 72.5806 899.571 99.862C899.571 101.615 899.046 102.237 897.224 102.237C881.173 102.187 865.135 102.175 849.085 102.249C847.425 102.249 846.788 101.503 846.227 100.235C838.126 81.633 830.001 63.0433 821.889 44.4536C818.881 37.5648 815.898 30.6761 812.353 23.7998C812.266 24.6951 812.091 25.5904 812.091 26.4732C812.078 50.6585 812.091 74.8561 812.091 99.0414C812.091 101.147 811.034 102.2 808.921 102.2C802.056 102.2 795.192 102.15 788.327 102.237C786.492 102.262 785.993 101.64 785.993 99.8869C786.031 72.5433 786.031 45.1872 785.993 17.8436C785.993 15.9784 786.605 15.3691 788.502 15.3691C804.328 15.4313 820.154 15.4189 835.992 15.3691C837.69 15.3691 838.538 15.9411 839.225 17.5203C850.096 42.576 861.042 67.6068 871.975 92.6376C872.137 92.9982 872.362 93.3463 872.549 93.6945C872.761 93.6696 872.986 93.6572 873.198 93.6323L873.186 93.6448Z" fill="white"/>
<path d="M772.763 45.5727C766.41 27.1198 752.793 16.824 733.161 15.6676C720.405 14.9215 707.575 15.3194 694.794 15.6054C690.613 15.7049 686.295 16.6002 682.301 17.9182C659.947 25.2919 647.603 49.042 654.618 71.6729C660.272 89.9268 676.796 101.939 696.067 102.187C701.921 102.262 707.774 102.187 713.641 102.2C719.494 102.2 725.348 102.2 731.214 102.2C737.891 102.2 744.256 100.77 750.26 97.885C770.392 88.1736 779.74 65.754 772.788 45.5603L772.763 45.5727ZM734.309 78.1513C730.378 79.0963 726.171 78.9595 722.09 79.1709C719.344 79.3077 716.598 79.1958 713.853 79.1958V79.1585C708.86 79.1585 703.88 79.1834 698.888 79.1585C688.329 79.1088 679.081 70.8771 678.843 59.2259C678.631 48.6814 686.195 39.9274 697.39 38.7088C699.899 38.4353 702.445 38.5347 704.966 38.5223C712.555 38.4974 720.156 38.4477 727.744 38.5347C738.278 38.6591 746.366 45.2494 748.475 55.2841C750.522 65.0079 744.044 75.8136 734.309 78.1513Z" fill="white"/>
<path d="M613.068 102.212C603.882 102.212 594.709 102.262 585.523 102.2C565.902 102.063 549.502 90.3247 543.599 71.7475C537.658 53.0832 545.109 32.8273 561.983 22.1957C569.322 17.57 577.41 15.4562 586.034 15.4313C605.343 15.3691 624.638 15.4313 643.946 15.3567C646.018 15.3567 646.517 16.0406 646.48 17.9555C646.38 24.0609 646.38 30.1663 646.48 36.2592C646.517 38.112 645.843 38.5347 644.109 38.5223C625.886 38.4726 607.676 38.485 589.454 38.4974C582.49 38.4974 576.649 40.8849 572.143 46.3188C563.219 57.0871 568.661 74.5079 582.215 78.1886C584.749 78.8725 587.47 79.1212 590.116 79.1336C607.976 79.2082 625.824 79.2082 643.684 79.1336C645.881 79.1336 646.542 79.7305 646.492 81.919C646.355 87.8005 646.355 93.6945 646.492 99.576C646.542 101.603 646.006 102.274 643.871 102.262C633.612 102.15 623.34 102.212 613.068 102.212Z" fill="white"/>
<path d="M1000.33 102.349C983.855 102.349 967.38 102.299 950.917 102.399C948.633 102.411 948.096 101.727 948.121 99.5512C948.246 91.2946 948.084 83.0256 948.196 74.7691C948.334 65.6918 952.103 58.4549 960.141 53.9412C962.949 52.362 966.244 51.2677 969.439 50.845C982.469 49.0917 995.549 47.699 1008.6 46.1571C1013.57 45.5727 1018.53 44.9758 1023.48 44.379C1026.48 44.0184 1028.39 42.29 1028.21 40.1264C1028.02 37.8011 1026.2 36.4706 1023.08 36.4706C999.768 36.4706 976.466 36.4706 953.151 36.4706C951.063 36.4706 950.018 35.4344 950.018 33.3619C950.018 27.8037 950.093 22.2454 949.981 16.6996C949.944 14.6603 950.692 14.0386 952.677 14.0511C977.826 14.1008 1002.98 14.0138 1028.12 14.1132C1039.99 14.163 1049.28 20.8155 1053.42 31.8201C1057.92 43.7448 1051.31 58.9523 1039.37 63.5531C1035.85 64.9085 1032.04 65.6918 1028.29 66.2017C1016.64 67.7684 1004.96 69.074 993.29 70.4916C988.186 71.1133 983.081 71.6977 977.976 72.3692C975.193 72.7298 973.321 76.9451 974.931 79.2082C975.18 79.5564 975.779 79.7802 976.241 79.8424C977.04 79.9543 977.851 79.9045 978.662 79.9045C1002.26 79.9045 1025.88 79.9045 1049.48 79.9045C1052.82 79.9045 1052.85 79.9294 1052.85 83.1624C1052.85 88.4222 1052.85 93.6945 1052.85 98.9543C1052.85 101.226 1051.74 102.361 1049.52 102.361C1033.12 102.361 1016.72 102.361 1000.32 102.361L1000.33 102.349Z" fill="#FF6C37"/>
<path d="M1099.03 82.7396C1087.85 82.7396 1076.68 82.7396 1065.49 82.7396C1062.76 82.7396 1062.65 82.6277 1062.65 79.8921C1062.65 73.9733 1062.57 68.0544 1062.71 62.1355C1062.73 60.9543 1063.26 59.5243 1064.06 58.6539C1077.18 44.2422 1090.38 29.9176 1103.54 15.5432C1104.62 14.3619 1105.78 13.8894 1107.38 13.8894C1124.73 13.9267 1142.09 13.9143 1159.44 13.9143C1162.11 13.9143 1162.25 14.0511 1162.25 16.824C1162.25 30.0543 1162.25 43.2847 1162.25 56.5151C1162.25 59.0186 1163.54 60.2704 1166.13 60.2704C1168.77 60.2704 1171.42 60.3201 1174.07 60.2579C1175.5 60.2206 1176.01 60.7926 1176 62.1977C1175.96 68.3404 1175.95 74.4831 1176 80.6133C1176 82.2174 1175.36 82.8267 1173.77 82.7894C1170.82 82.7148 1167.87 82.8888 1164.94 82.7396C1162.76 82.6277 1162.16 83.4981 1162.21 85.5498C1162.32 90.3745 1162.2 95.1991 1162.27 100.024C1162.3 101.69 1161.78 102.361 1160.01 102.349C1152.66 102.274 1145.31 102.262 1137.96 102.349C1136.05 102.374 1135.59 101.615 1135.61 99.8869C1135.69 95.0623 1135.56 90.2377 1135.67 85.4131C1135.72 83.4111 1135.04 82.7396 1133.02 82.7521C1121.7 82.8267 1110.36 82.7894 1099.04 82.7894L1099.03 82.7396ZM1096.11 59.9968C1097.28 60.1336 1097.72 60.233 1098.14 60.233C1109.9 60.233 1121.67 60.2082 1133.43 60.2828C1135.5 60.2952 1135.64 59.2134 1135.64 57.6591C1135.61 45.237 1135.64 32.8148 1135.61 20.3927C1135.61 19.659 1135.42 18.9378 1135.32 18.2042C1135.12 18.142 1134.91 18.0799 1134.71 18.0177C1121.97 31.8698 1109.24 45.7219 1096.11 59.9968Z" fill="#FF6C37"/>
<path fill-rule="evenodd" clip-rule="evenodd" d="M0.0376414 55.6179V57.4726C0.0376414 60.8824 0.039981 64.293 0.0423209 67.7039C0.0493418 77.9383 0.056365 88.1763 0.000198273 98.4072C-0.0122828 100.297 0.561845 100.882 2.47144 100.857C9.54819 100.757 16.6374 100.757 23.7266 100.857C25.6612 100.882 26.1854 100.248 26.148 98.3823C26.0677 94.1275 26.083 89.8663 26.0983 85.6078C26.1044 83.905 26.1105 82.2027 26.1105 80.5014C26.1105 77.6539 26.123 77.6539 29.0061 77.6539C33.8803 77.6539 38.7555 77.6519 43.6312 77.6498C55.8222 77.6448 68.0159 77.6397 80.2033 77.6663C84.3595 77.6788 88.3908 77.1565 92.3473 75.8385C108.585 70.4667 117.846 50.9693 111.631 35.1774C106.364 21.7978 95.0308 14.0262 80.4904 14.0013C62.4223 13.9665 44.3482 13.9743 26.2765 13.9822C18.5322 13.9855 10.7883 13.9889 3.04557 13.9889C0.0501222 13.9889 0.0376414 14.0013 0.0376414 16.9732V36.1758H27.492C27.7343 36.1366 28.0131 36.1201 28.3321 36.1224C34.5569 36.1784 40.7887 36.1714 47.0222 36.1644C49.1003 36.1621 51.1785 36.1597 53.2567 36.1597V36.1846C55.6795 36.1846 58.1023 36.1792 60.5251 36.1738C66.3398 36.1609 72.1545 36.148 77.9692 36.2095C82.0754 36.2468 85.9945 39.3679 86.9805 43.0858C88.1038 47.3011 86.6685 51.79 83.0739 53.8417C81.2891 54.8613 79.0176 55.5328 76.9582 55.5452C66.1663 55.6447 55.3744 55.6447 44.5824 55.6447C39.1865 55.6447 33.7905 55.6447 28.3945 55.6571C28.1421 55.6571 27.9125 55.6449 27.7048 55.6179H0.0376414Z" fill="white"/>
</g>
<defs>
<clipPath id="clip0_490_3623">
<rect width="1176" height="112.794" fill="white"/>
</clipPath>
</defs>
</svg>
