<svg width="450px" height="34" viewBox="0 0 682 34" fill="none" xmlns="http://www.w3.org/2000/svg"><path d="M0.689808 32.749V2.20357H11.5776C18.677 2.20357 22.1522 6.46919 22.1522 12.0921C22.1522 17.7298 18.6472 22.0104 11.5627 22.0104H5.29847V32.749H0.689808ZM5.29847 18.1027H11.1451C15.6493 18.1027 17.5137 15.5523 17.5137 12.0921C17.5137 8.63184 15.6493 6.15598 11.0854 6.15598H5.29847V18.1027ZM36.5598 33.2114C30.1017 33.2114 25.8809 28.4834 25.8809 21.3989C25.8809 14.2696 30.1017 9.54164 36.5598 9.54164C43.0179 9.54164 47.2388 14.2696 47.2388 21.3989C47.2388 28.4834 43.0179 33.2114 36.5598 33.2114ZM36.5748 29.4678C40.7658 29.4678 42.7346 25.7838 42.7346 21.384C42.7346 16.999 40.7658 13.2703 36.5748 13.2703C32.3539 13.2703 30.3851 16.999 30.3851 21.384C30.3851 25.7838 32.3539 29.4678 36.5748 29.4678ZM69.3835 15.433L65.3416 16.1489C64.8196 14.6127 63.5369 13.0764 60.7628 13.0764C58.2273 13.0764 56.3182 14.3293 56.3331 16.0892C56.3182 17.6404 57.407 18.4905 59.9276 19.0871L63.5668 19.9223C67.7727 20.8918 69.831 22.8904 69.831 26.1269C69.831 30.2732 65.9979 33.2114 60.4645 33.2114C55.3189 33.2114 51.9482 30.9294 51.2024 26.8726L55.5128 26.2164C56.0497 28.4685 57.7649 29.6169 60.4347 29.6169C63.358 29.6169 65.2521 28.2298 65.2521 26.455C65.2521 25.0232 64.223 24.0388 62.0156 23.5466L58.1378 22.6965C53.8423 21.7419 51.8736 19.5793 51.8736 16.3279C51.8736 12.271 55.5426 9.54164 60.718 9.54164C65.6697 9.54164 68.4588 11.8683 69.3835 15.433ZM85.4281 9.83993V13.4195H80.7299V26.0225C80.7299 28.6027 82.0275 29.08 83.4743 29.08C84.1902 29.08 84.742 28.9458 85.0403 28.8861L85.8457 32.57C85.3237 32.7639 84.3691 33.0324 82.9522 33.0473C79.4324 33.1219 76.2555 31.1084 76.2704 26.9472V13.4195H72.9146V9.83993H76.2704V4.3513H80.7299V9.83993H85.4281ZM90.3612 32.749V9.83993H94.6417V13.5686H94.9251C95.8796 11.048 98.1317 9.54164 101.159 9.54164C104.217 9.54164 106.32 11.0629 107.319 13.5686H107.558C108.662 11.1226 111.137 9.54164 114.434 9.54164C118.58 9.54164 121.503 12.1517 121.503 17.3868V32.749H117.044V17.8044C117.044 14.7021 115.105 13.3896 112.748 13.3896C109.84 13.3896 108.154 15.3882 108.154 18.1475V32.749H103.71V17.521C103.71 15.0303 101.995 13.3896 99.5188 13.3896C96.9833 13.3896 94.8207 15.5374 94.8207 18.6247V32.749H90.3612ZM134.147 33.2561C129.792 33.2561 126.406 30.7803 126.406 26.276C126.406 21.0708 130.851 19.9372 135.191 19.4301C139.308 18.9529 140.978 18.9827 140.978 17.357V17.2526C140.978 14.6574 139.502 13.151 136.623 13.151C133.625 13.151 131.955 14.7171 131.298 16.3428L127.107 15.3882C128.599 11.2121 132.417 9.54164 136.563 9.54164C140.203 9.54164 145.453 10.8691 145.453 17.536V32.749H141.097V29.6169H140.919C140.068 31.3321 137.936 33.2561 134.147 33.2561ZM135.117 29.6766C138.83 29.6766 140.993 27.2007 140.993 24.4862V21.5331C140.352 22.1744 136.921 22.5622 135.475 22.7561C132.894 23.0992 130.776 23.9493 130.776 26.3357C130.776 28.5431 132.596 29.6766 135.117 29.6766ZM155.852 19.1467V32.749H151.392V9.83993H155.673V13.5686H155.956C157.015 11.1375 159.267 9.54164 162.713 9.54164C167.396 9.54164 170.513 12.5097 170.513 18.1773V32.749H166.054V18.7142C166.054 15.3882 164.219 13.4046 161.191 13.4046C158.089 13.4046 155.852 15.4926 155.852 19.1467ZM180.327 2.20357V5.0672C180.327 7.60272 178.836 10.7646 176.539 12.6141L174.331 11.0331C175.495 9.31791 176.509 7.42374 176.509 5.11195V2.20357H180.327ZM198.911 15.433L194.869 16.1489C194.347 14.6127 193.064 13.0764 190.29 13.0764C187.755 13.0764 185.846 14.3293 185.86 16.0892C185.846 17.6404 186.934 18.4905 189.455 19.0871L193.094 19.9223C197.3 20.8918 199.358 22.8904 199.358 26.1269C199.358 30.2732 195.525 33.2114 189.992 33.2114C184.846 33.2114 181.475 30.9294 180.73 26.8726L185.04 26.2164C185.577 28.4685 187.292 29.6169 189.962 29.6169C192.885 29.6169 194.779 28.2298 194.779 26.455C194.779 25.0232 193.75 24.0388 191.543 23.5466L187.665 22.6965C183.37 21.7419 181.401 19.5793 181.401 16.3279C181.401 12.271 185.07 9.54164 190.245 9.54164C195.197 9.54164 197.986 11.8683 198.911 15.433ZM222.044 33.2561C217.689 33.2561 214.303 30.7803 214.303 26.276C214.303 21.0708 218.748 19.9372 223.088 19.4301C227.204 18.9529 228.875 18.9827 228.875 17.357V17.2526C228.875 14.6574 227.398 13.151 224.52 13.151C221.522 13.151 219.851 14.7171 219.195 16.3428L215.004 15.3882C216.495 11.2121 220.314 9.54164 224.46 9.54164C228.099 9.54164 233.349 10.8691 233.349 17.536V32.749H228.994V29.6169H228.815C227.965 31.3321 225.832 33.2561 222.044 33.2561ZM223.013 29.6766C226.727 29.6766 228.89 27.2007 228.89 24.4862V21.5331C228.248 22.1744 224.818 22.5622 223.371 22.7561C220.791 23.0992 218.673 23.9493 218.673 26.3357C218.673 28.5431 220.493 29.6766 223.013 29.6766ZM243.748 19.1467V32.749H239.289V9.83993H243.569V13.5686H243.853C244.912 11.1375 247.164 9.54164 250.609 9.54164C255.292 9.54164 258.41 12.5097 258.41 18.1773V32.749H253.95V18.7142C253.95 15.3882 252.116 13.4046 249.088 13.4046C245.986 13.4046 243.748 15.4926 243.748 19.1467ZM268.85 19.1467V32.749H264.39V9.83993H268.671V13.5686H268.954C270.013 11.1375 272.265 9.54164 275.711 9.54164C280.394 9.54164 283.511 12.5097 283.511 18.1773V32.749H279.052V18.7142C279.052 15.3882 277.217 13.4046 274.189 13.4046C271.087 13.4046 268.85 15.4926 268.85 19.1467ZM304.004 23.2483V9.83993H308.479V32.749H304.094V28.7817H303.855C302.796 31.2277 300.454 33.0473 297.009 33.0473C292.609 33.0473 289.492 30.0942 289.492 24.4117V9.83993H293.952V23.8747C293.952 26.9919 295.861 28.9905 298.62 28.9905C301.126 28.9905 304.019 27.1411 304.004 23.2483ZM321.137 33.2561C316.782 33.2561 313.397 30.7803 313.397 26.276C313.397 21.0708 317.841 19.9372 322.181 19.4301C326.298 18.9529 327.968 18.9827 327.968 17.357V17.2526C327.968 14.6574 326.492 13.151 323.613 13.151C320.615 13.151 318.945 14.7171 318.289 16.3428L314.098 15.3882C315.589 11.2121 319.407 9.54164 323.554 9.54164C327.193 9.54164 332.443 10.8691 332.443 17.536V32.749H328.088V29.6169H327.909C327.059 31.3321 324.926 33.2561 321.137 33.2561ZM322.107 29.6766C325.821 29.6766 327.983 27.2007 327.983 24.4862V21.5331C327.342 22.1744 323.912 22.5622 322.465 22.7561C319.885 23.0992 317.767 23.9493 317.767 26.3357C317.767 28.5431 319.586 29.6766 322.107 29.6766ZM342.842 2.20357V32.749H338.383V2.20357H342.842ZM374.469 23.2483V9.83993H378.943V32.749H374.558V28.7817H374.32C373.261 31.2277 370.919 33.0473 367.474 33.0473C363.074 33.0473 359.957 30.0942 359.957 24.4117V9.83993H364.416V23.8747C364.416 26.9919 366.325 28.9905 369.085 28.9905C371.59 28.9905 374.484 27.1411 374.469 23.2483ZM402.102 15.433L398.06 16.1489C397.538 14.6127 396.256 13.0764 393.482 13.0764C390.946 13.0764 389.037 14.3293 389.052 16.0892C389.037 17.6404 390.126 18.4905 392.646 19.0871L396.286 19.9223C400.491 20.8918 402.55 22.8904 402.55 26.1269C402.55 30.2732 398.717 33.2114 393.183 33.2114C388.038 33.2114 384.667 30.9294 383.921 26.8726L388.232 26.2164C388.768 28.4685 390.484 29.6169 393.153 29.6169C396.077 29.6169 397.971 28.2298 397.971 26.455C397.971 25.0232 396.942 24.0388 394.734 23.5466L390.857 22.6965C386.561 21.7419 384.592 19.5793 384.592 16.3279C384.592 12.271 388.261 9.54164 393.437 9.54164C398.388 9.54164 401.178 11.8683 402.102 15.433ZM417.327 33.2114C410.57 33.2114 406.424 28.558 406.424 21.4436C406.424 14.4039 410.63 9.54164 417.013 9.54164C422.204 9.54164 427.155 12.7781 427.155 21.0558V22.6368H410.868C410.988 27.0516 413.553 29.5274 417.371 29.5274C419.907 29.5274 421.846 28.4237 422.651 26.2611L426.872 27.0218C425.858 30.7504 422.323 33.2114 417.327 33.2114ZM410.883 19.2959H422.785C422.77 15.7909 420.503 13.2256 417.043 13.2256C413.419 13.2256 411.062 16.0445 410.883 19.2959ZM432.103 32.749V9.83993H436.414V13.4791H436.652C437.488 11.0182 439.784 9.49689 442.469 9.49689C443.036 9.49689 443.916 9.54164 444.363 9.6013V13.8669C444.005 13.7625 442.961 13.5985 442.037 13.5985C438.875 13.5985 436.563 15.7611 436.563 18.759V32.749H432.103ZM468.988 33.2114C462.336 33.2114 458.309 28.3044 458.309 21.3989C458.309 14.4039 462.485 9.54164 468.943 9.54164C474.148 9.54164 477.922 12.6141 478.399 17.2377H474.059C473.581 15.0899 471.851 13.3002 469.017 13.3002C465.289 13.3002 462.813 16.3875 462.813 21.2945C462.813 26.2909 465.244 29.4379 469.017 29.4379C471.568 29.4379 473.492 27.9763 474.059 25.5004H478.399C477.907 29.96 474.402 33.2114 468.988 33.2114ZM492.818 33.2114C486.36 33.2114 482.139 28.4834 482.139 21.3989C482.139 14.2696 486.36 9.54164 492.818 9.54164C499.276 9.54164 503.497 14.2696 503.497 21.3989C503.497 28.4834 499.276 33.2114 492.818 33.2114ZM492.833 29.4678C497.024 29.4678 498.992 25.7838 498.992 21.384C498.992 16.999 497.024 13.2703 492.833 13.2703C488.612 13.2703 486.643 16.999 486.643 21.384C486.643 25.7838 488.612 29.4678 492.833 29.4678ZM512.934 19.1467V32.749H508.474V9.83993H512.755V13.5686H513.038C514.097 11.1375 516.349 9.54164 519.795 9.54164C524.478 9.54164 527.595 12.5097 527.595 18.1773V32.749H523.136V18.7142C523.136 15.3882 521.301 13.4046 518.273 13.4046C515.171 13.4046 512.934 15.4926 512.934 19.1467ZM544.479 9.83993V13.4195H539.542V32.749H535.067V13.4195H531.533V9.83993H535.067V7.1851C535.067 2.88965 538.244 0.771749 541.869 0.771749C543.673 0.771749 544.971 1.14462 545.597 1.38326L544.553 4.99263C544.136 4.8584 543.479 4.64959 542.555 4.64959C540.377 4.64959 539.542 5.75328 539.542 7.78169V9.83993H544.479ZM558.051 33.2114C551.295 33.2114 547.148 28.558 547.148 21.4436C547.148 14.4039 551.354 9.54164 557.738 9.54164C562.928 9.54164 567.88 12.7781 567.88 21.0558V22.6368H551.593C551.712 27.0516 554.278 29.5274 558.096 29.5274C560.631 29.5274 562.57 28.4237 563.376 26.2611L567.597 27.0218C566.582 30.7504 563.048 33.2114 558.051 33.2114ZM551.608 19.2959H563.51C563.495 15.7909 561.228 13.2256 557.768 13.2256C554.143 13.2256 551.787 16.0445 551.608 19.2959ZM572.828 32.749V9.83993H577.138V13.4791H577.377C578.212 11.0182 580.509 9.49689 583.194 9.49689C583.76 9.49689 584.64 9.54164 585.088 9.6013V13.8669C584.73 13.7625 583.686 13.5985 582.761 13.5985C579.599 13.5985 577.287 15.7611 577.287 18.759V32.749H572.828ZM598 33.2114C591.244 33.2114 587.098 28.558 587.098 21.4436C587.098 14.4039 591.304 9.54164 597.687 9.54164C602.877 9.54164 607.829 12.7781 607.829 21.0558V22.6368H591.542C591.662 27.0516 594.227 29.5274 598.045 29.5274C600.581 29.5274 602.52 28.4237 603.325 26.2611L607.546 27.0218C606.532 30.7504 602.997 33.2114 598 33.2114ZM591.557 19.2959H603.459C603.444 15.7909 601.177 13.2256 597.717 13.2256C594.093 13.2256 591.736 16.0445 591.557 19.2959ZM617.237 19.1467V32.749H612.777V9.83993H617.058V13.5686H617.341C618.4 11.1375 620.652 9.54164 624.097 9.54164C628.781 9.54164 631.898 12.5097 631.898 18.1773V32.749H627.438V18.7142C627.438 15.3882 625.604 13.4046 622.576 13.4046C619.474 13.4046 617.237 15.4926 617.237 19.1467ZM647.529 33.2114C640.877 33.2114 636.85 28.3044 636.85 21.3989C636.85 14.4039 641.026 9.54164 647.484 9.54164C652.689 9.54164 656.463 12.6141 656.94 17.2377H652.6C652.122 15.0899 650.392 13.3002 647.558 13.3002C643.83 13.3002 641.354 16.3875 641.354 21.2945C641.354 26.2909 643.785 29.4379 647.558 29.4379C650.109 29.4379 652.033 27.9763 652.6 25.5004H656.94C656.448 29.96 652.943 33.2114 647.529 33.2114ZM671.582 33.2114C664.826 33.2114 660.68 28.558 660.68 21.4436C660.68 14.4039 664.886 9.54164 671.269 9.54164C676.46 9.54164 681.411 12.7781 681.411 21.0558V22.6368H665.124C665.244 27.0516 667.809 29.5274 671.627 29.5274C674.163 29.5274 676.102 28.4237 676.907 26.2611L681.128 27.0218C680.114 30.7504 676.579 33.2114 671.582 33.2114ZM665.139 19.2959H677.041C677.026 15.7909 674.759 13.2256 671.299 13.2256C667.675 13.2256 665.318 16.0445 665.139 19.2959Z" fill="white"></path><path d="M0.689808 32.749V2.20357H11.5776C18.677 2.20357 22.1522 6.46919 22.1522 12.0921C22.1522 17.7298 18.6472 22.0104 11.5627 22.0104H5.29847V32.749H0.689808ZM5.29847 18.1027H11.1451C15.6493 18.1027 17.5137 15.5523 17.5137 12.0921C17.5137 8.63184 15.6493 6.15598 11.0854 6.15598H5.29847V18.1027ZM36.5598 33.2114C30.1017 33.2114 25.8809 28.4834 25.8809 21.3989C25.8809 14.2696 30.1017 9.54164 36.5598 9.54164C43.0179 9.54164 47.2388 14.2696 47.2388 21.3989C47.2388 28.4834 43.0179 33.2114 36.5598 33.2114ZM36.5748 29.4678C40.7658 29.4678 42.7346 25.7838 42.7346 21.384C42.7346 16.999 40.7658 13.2703 36.5748 13.2703C32.3539 13.2703 30.3851 16.999 30.3851 21.384C30.3851 25.7838 32.3539 29.4678 36.5748 29.4678ZM69.3835 15.433L65.3416 16.1489C64.8196 14.6127 63.5369 13.0764 60.7628 13.0764C58.2273 13.0764 56.3182 14.3293 56.3331 16.0892C56.3182 17.6404 57.407 18.4905 59.9276 19.0871L63.5668 19.9223C67.7727 20.8918 69.831 22.8904 69.831 26.1269C69.831 30.2732 65.9979 33.2114 60.4645 33.2114C55.3189 33.2114 51.9482 30.9294 51.2024 26.8726L55.5128 26.2164C56.0497 28.4685 57.7649 29.6169 60.4347 29.6169C63.358 29.6169 65.2521 28.2298 65.2521 26.455C65.2521 25.0232 64.223 24.0388 62.0156 23.5466L58.1378 22.6965C53.8423 21.7419 51.8736 19.5793 51.8736 16.3279C51.8736 12.271 55.5426 9.54164 60.718 9.54164C65.6697 9.54164 68.4588 11.8683 69.3835 15.433ZM85.4281 9.83993V13.4195H80.7299V26.0225C80.7299 28.6027 82.0275 29.08 83.4743 29.08C84.1902 29.08 84.742 28.9458 85.0403 28.8861L85.8457 32.57C85.3237 32.7639 84.3691 33.0324 82.9522 33.0473C79.4324 33.1219 76.2555 31.1084 76.2704 26.9472V13.4195H72.9146V9.83993H76.2704V4.3513H80.7299V9.83993H85.4281ZM90.3612 32.749V9.83993H94.6417V13.5686H94.9251C95.8796 11.048 98.1317 9.54164 101.159 9.54164C104.217 9.54164 106.32 11.0629 107.319 13.5686H107.558C108.662 11.1226 111.137 9.54164 114.434 9.54164C118.58 9.54164 121.503 12.1517 121.503 17.3868V32.749H117.044V17.8044C117.044 14.7021 115.105 13.3896 112.748 13.3896C109.84 13.3896 108.154 15.3882 108.154 18.1475V32.749H103.71V17.521C103.71 15.0303 101.995 13.3896 99.5188 13.3896C96.9833 13.3896 94.8207 15.5374 94.8207 18.6247V32.749H90.3612ZM134.147 33.2561C129.792 33.2561 126.406 30.7803 126.406 26.276C126.406 21.0708 130.851 19.9372 135.191 19.4301C139.308 18.9529 140.978 18.9827 140.978 17.357V17.2526C140.978 14.6574 139.502 13.151 136.623 13.151C133.625 13.151 131.955 14.7171 131.298 16.3428L127.107 15.3882C128.599 11.2121 132.417 9.54164 136.563 9.54164C140.203 9.54164 145.453 10.8691 145.453 17.536V32.749H141.097V29.6169H140.919C140.068 31.3321 137.936 33.2561 134.147 33.2561ZM135.117 29.6766C138.83 29.6766 140.993 27.2007 140.993 24.4862V21.5331C140.352 22.1744 136.921 22.5622 135.475 22.7561C132.894 23.0992 130.776 23.9493 130.776 26.3357C130.776 28.5431 132.596 29.6766 135.117 29.6766ZM155.852 19.1467V32.749H151.392V9.83993H155.673V13.5686H155.956C157.015 11.1375 159.267 9.54164 162.713 9.54164C167.396 9.54164 170.513 12.5097 170.513 18.1773V32.749H166.054V18.7142C166.054 15.3882 164.219 13.4046 161.191 13.4046C158.089 13.4046 155.852 15.4926 155.852 19.1467ZM180.327 2.20357V5.0672C180.327 7.60272 178.836 10.7646 176.539 12.6141L174.331 11.0331C175.495 9.31791 176.509 7.42374 176.509 5.11195V2.20357H180.327ZM198.911 15.433L194.869 16.1489C194.347 14.6127 193.064 13.0764 190.29 13.0764C187.755 13.0764 185.846 14.3293 185.86 16.0892C185.846 17.6404 186.934 18.4905 189.455 19.0871L193.094 19.9223C197.3 20.8918 199.358 22.8904 199.358 26.1269C199.358 30.2732 195.525 33.2114 189.992 33.2114C184.846 33.2114 181.475 30.9294 180.73 26.8726L185.04 26.2164C185.577 28.4685 187.292 29.6169 189.962 29.6169C192.885 29.6169 194.779 28.2298 194.779 26.455C194.779 25.0232 193.75 24.0388 191.543 23.5466L187.665 22.6965C183.37 21.7419 181.401 19.5793 181.401 16.3279C181.401 12.271 185.07 9.54164 190.245 9.54164C195.197 9.54164 197.986 11.8683 198.911 15.433ZM222.044 33.2561C217.689 33.2561 214.303 30.7803 214.303 26.276C214.303 21.0708 218.748 19.9372 223.088 19.4301C227.204 18.9529 228.875 18.9827 228.875 17.357V17.2526C228.875 14.6574 227.398 13.151 224.52 13.151C221.522 13.151 219.851 14.7171 219.195 16.3428L215.004 15.3882C216.495 11.2121 220.314 9.54164 224.46 9.54164C228.099 9.54164 233.349 10.8691 233.349 17.536V32.749H228.994V29.6169H228.815C227.965 31.3321 225.832 33.2561 222.044 33.2561ZM223.013 29.6766C226.727 29.6766 228.89 27.2007 228.89 24.4862V21.5331C228.248 22.1744 224.818 22.5622 223.371 22.7561C220.791 23.0992 218.673 23.9493 218.673 26.3357C218.673 28.5431 220.493 29.6766 223.013 29.6766ZM243.748 19.1467V32.749H239.289V9.83993H243.569V13.5686H243.853C244.912 11.1375 247.164 9.54164 250.609 9.54164C255.292 9.54164 258.41 12.5097 258.41 18.1773V32.749H253.95V18.7142C253.95 15.3882 252.116 13.4046 249.088 13.4046C245.986 13.4046 243.748 15.4926 243.748 19.1467ZM268.85 19.1467V32.749H264.39V9.83993H268.671V13.5686H268.954C270.013 11.1375 272.265 9.54164 275.711 9.54164C280.394 9.54164 283.511 12.5097 283.511 18.1773V32.749H279.052V18.7142C279.052 15.3882 277.217 13.4046 274.189 13.4046C271.087 13.4046 268.85 15.4926 268.85 19.1467ZM304.004 23.2483V9.83993H308.479V32.749H304.094V28.7817H303.855C302.796 31.2277 300.454 33.0473 297.009 33.0473C292.609 33.0473 289.492 30.0942 289.492 24.4117V9.83993H293.952V23.8747C293.952 26.9919 295.861 28.9905 298.62 28.9905C301.126 28.9905 304.019 27.1411 304.004 23.2483ZM321.137 33.2561C316.782 33.2561 313.397 30.7803 313.397 26.276C313.397 21.0708 317.841 19.9372 322.181 19.4301C326.298 18.9529 327.968 18.9827 327.968 17.357V17.2526C327.968 14.6574 326.492 13.151 323.613 13.151C320.615 13.151 318.945 14.7171 318.289 16.3428L314.098 15.3882C315.589 11.2121 319.407 9.54164 323.554 9.54164C327.193 9.54164 332.443 10.8691 332.443 17.536V32.749H328.088V29.6169H327.909C327.059 31.3321 324.926 33.2561 321.137 33.2561ZM322.107 29.6766C325.821 29.6766 327.983 27.2007 327.983 24.4862V21.5331C327.342 22.1744 323.912 22.5622 322.465 22.7561C319.885 23.0992 317.767 23.9493 317.767 26.3357C317.767 28.5431 319.586 29.6766 322.107 29.6766ZM342.842 2.20357V32.749H338.383V2.20357H342.842ZM374.469 23.2483V9.83993H378.943V32.749H374.558V28.7817H374.32C373.261 31.2277 370.919 33.0473 367.474 33.0473C363.074 33.0473 359.957 30.0942 359.957 24.4117V9.83993H364.416V23.8747C364.416 26.9919 366.325 28.9905 369.085 28.9905C371.59 28.9905 374.484 27.1411 374.469 23.2483ZM402.102 15.433L398.06 16.1489C397.538 14.6127 396.256 13.0764 393.482 13.0764C390.946 13.0764 389.037 14.3293 389.052 16.0892C389.037 17.6404 390.126 18.4905 392.646 19.0871L396.286 19.9223C400.491 20.8918 402.55 22.8904 402.55 26.1269C402.55 30.2732 398.717 33.2114 393.183 33.2114C388.038 33.2114 384.667 30.9294 383.921 26.8726L388.232 26.2164C388.768 28.4685 390.484 29.6169 393.153 29.6169C396.077 29.6169 397.971 28.2298 397.971 26.455C397.971 25.0232 396.942 24.0388 394.734 23.5466L390.857 22.6965C386.561 21.7419 384.592 19.5793 384.592 16.3279C384.592 12.271 388.261 9.54164 393.437 9.54164C398.388 9.54164 401.178 11.8683 402.102 15.433ZM417.327 33.2114C410.57 33.2114 406.424 28.558 406.424 21.4436C406.424 14.4039 410.63 9.54164 417.013 9.54164C422.204 9.54164 427.155 12.7781 427.155 21.0558V22.6368H410.868C410.988 27.0516 413.553 29.5274 417.371 29.5274C419.907 29.5274 421.846 28.4237 422.651 26.2611L426.872 27.0218C425.858 30.7504 422.323 33.2114 417.327 33.2114ZM410.883 19.2959H422.785C422.77 15.7909 420.503 13.2256 417.043 13.2256C413.419 13.2256 411.062 16.0445 410.883 19.2959ZM432.103 32.749V9.83993H436.414V13.4791H436.652C437.488 11.0182 439.784 9.49689 442.469 9.49689C443.036 9.49689 443.916 9.54164 444.363 9.6013V13.8669C444.005 13.7625 442.961 13.5985 442.037 13.5985C438.875 13.5985 436.563 15.7611 436.563 18.759V32.749H432.103ZM468.988 33.2114C462.336 33.2114 458.309 28.3044 458.309 21.3989C458.309 14.4039 462.485 9.54164 468.943 9.54164C474.148 9.54164 477.922 12.6141 478.399 17.2377H474.059C473.581 15.0899 471.851 13.3002 469.017 13.3002C465.289 13.3002 462.813 16.3875 462.813 21.2945C462.813 26.2909 465.244 29.4379 469.017 29.4379C471.568 29.4379 473.492 27.9763 474.059 25.5004H478.399C477.907 29.96 474.402 33.2114 468.988 33.2114ZM492.818 33.2114C486.36 33.2114 482.139 28.4834 482.139 21.3989C482.139 14.2696 486.36 9.54164 492.818 9.54164C499.276 9.54164 503.497 14.2696 503.497 21.3989C503.497 28.4834 499.276 33.2114 492.818 33.2114ZM492.833 29.4678C497.024 29.4678 498.992 25.7838 498.992 21.384C498.992 16.999 497.024 13.2703 492.833 13.2703C488.612 13.2703 486.643 16.999 486.643 21.384C486.643 25.7838 488.612 29.4678 492.833 29.4678ZM512.934 19.1467V32.749H508.474V9.83993H512.755V13.5686H513.038C514.097 11.1375 516.349 9.54164 519.795 9.54164C524.478 9.54164 527.595 12.5097 527.595 18.1773V32.749H523.136V18.7142C523.136 15.3882 521.301 13.4046 518.273 13.4046C515.171 13.4046 512.934 15.4926 512.934 19.1467ZM544.479 9.83993V13.4195H539.542V32.749H535.067V13.4195H531.533V9.83993H535.067V7.1851C535.067 2.88965 538.244 0.771749 541.869 0.771749C543.673 0.771749 544.971 1.14462 545.597 1.38326L544.553 4.99263C544.136 4.8584 543.479 4.64959 542.555 4.64959C540.377 4.64959 539.542 5.75328 539.542 7.78169V9.83993H544.479ZM558.051 33.2114C551.295 33.2114 547.148 28.558 547.148 21.4436C547.148 14.4039 551.354 9.54164 557.738 9.54164C562.928 9.54164 567.88 12.7781 567.88 21.0558V22.6368H551.593C551.712 27.0516 554.278 29.5274 558.096 29.5274C560.631 29.5274 562.57 28.4237 563.376 26.2611L567.597 27.0218C566.582 30.7504 563.048 33.2114 558.051 33.2114ZM551.608 19.2959H563.51C563.495 15.7909 561.228 13.2256 557.768 13.2256C554.143 13.2256 551.787 16.0445 551.608 19.2959ZM572.828 32.749V9.83993H577.138V13.4791H577.377C578.212 11.0182 580.509 9.49689 583.194 9.49689C583.76 9.49689 584.64 9.54164 585.088 9.6013V13.8669C584.73 13.7625 583.686 13.5985 582.761 13.5985C579.599 13.5985 577.287 15.7611 577.287 18.759V32.749H572.828ZM598 33.2114C591.244 33.2114 587.098 28.558 587.098 21.4436C587.098 14.4039 591.304 9.54164 597.687 9.54164C602.877 9.54164 607.829 12.7781 607.829 21.0558V22.6368H591.542C591.662 27.0516 594.227 29.5274 598.045 29.5274C600.581 29.5274 602.52 28.4237 603.325 26.2611L607.546 27.0218C606.532 30.7504 602.997 33.2114 598 33.2114ZM591.557 19.2959H603.459C603.444 15.7909 601.177 13.2256 597.717 13.2256C594.093 13.2256 591.736 16.0445 591.557 19.2959ZM617.237 19.1467V32.749H612.777V9.83993H617.058V13.5686H617.341C618.4 11.1375 620.652 9.54164 624.097 9.54164C628.781 9.54164 631.898 12.5097 631.898 18.1773V32.749H627.438V18.7142C627.438 15.3882 625.604 13.4046 622.576 13.4046C619.474 13.4046 617.237 15.4926 617.237 19.1467ZM647.529 33.2114C640.877 33.2114 636.85 28.3044 636.85 21.3989C636.85 14.4039 641.026 9.54164 647.484 9.54164C652.689 9.54164 656.463 12.6141 656.94 17.2377H652.6C652.122 15.0899 650.392 13.3002 647.558 13.3002C643.83 13.3002 641.354 16.3875 641.354 21.2945C641.354 26.2909 643.785 29.4379 647.558 29.4379C650.109 29.4379 652.033 27.9763 652.6 25.5004H656.94C656.448 29.96 652.943 33.2114 647.529 33.2114ZM671.582 33.2114C664.826 33.2114 660.68 28.558 660.68 21.4436C660.68 14.4039 664.886 9.54164 671.269 9.54164C676.46 9.54164 681.411 12.7781 681.411 21.0558V22.6368H665.124C665.244 27.0516 667.809 29.5274 671.627 29.5274C674.163 29.5274 676.102 28.4237 676.907 26.2611L681.128 27.0218C680.114 30.7504 676.579 33.2114 671.582 33.2114ZM665.139 19.2959H677.041C677.026 15.7909 674.759 13.2256 671.299 13.2256C667.675 13.2256 665.318 16.0445 665.139 19.2959Z" fill="url(#paint0_linear_1399_1742)"></path><defs><linearGradient id="paint0_linear_1399_1742" x1="-2.66602" y1="20.2491" x2="799.956" y2="21.6416" gradientUnits="userSpaceOnUse"><stop stop-color="#FF6C37"></stop><stop offset="1" stop-color="#BC53CA"></stop></linearGradient></defs></svg>